<svg width="5000" height="1250" viewBox="0 0 5000 1250" fill="none" xmlns="http://www.w3.org/2000/svg">
<path d="M1857.18 309.522V403.448H1581.85V610.482H1796.51V704.404H1581.85V1011.42H1475.45V309.522H1857.18ZM1967.92 381.228C1948.63 381.228 1932.45 374.16 1919.38 360.019C1906.32 345.879 1899.78 328.378 1899.78 307.503C1899.78 286.633 1906.32 269.128 1919.38 254.987C1932.45 240.851 1948.63 233.779 1967.92 233.779C1986.58 233.779 2002.45 240.851 2015.52 254.987C2028.58 269.128 2035.12 286.633 2035.12 307.503C2035.12 328.378 2028.58 345.879 2015.52 360.019C2002.45 374.16 1986.58 381.228 1967.92 381.228ZM2020.19 454.953V1011.42H1913.79V454.953H2020.19ZM2377.34 445.862C2417.79 445.862 2453.87 454.953 2485.61 473.131C2517.96 491.31 2543.16 518.24 2561.21 553.924C2579.25 589.608 2588.28 632.698 2588.28 683.195V1011.42H2482.81V700.362C2482.81 650.542 2471.3 612.501 2448.28 586.243C2425.25 559.312 2393.83 545.844 2354.01 545.844C2314.19 545.844 2282.46 559.312 2258.81 586.243C2235.79 612.501 2224.28 650.542 2224.28 700.362V1011.42H2117.88V454.953H2224.28V518.579C2241.7 495.686 2263.79 477.846 2290.54 465.052C2317.92 452.261 2346.85 445.862 2377.34 445.862ZM2646.53 730.662C2646.53 674.777 2657.1 625.291 2678.26 582.201C2700.04 539.111 2729.28 505.784 2765.99 482.218C2803.32 457.983 2844.7 445.862 2890.13 445.862C2923.73 445.862 2956.7 453.941 2989.06 470.101C3022.04 485.587 3048.17 506.457 3067.46 532.715V264.079H3174.79V1011.42H3067.46V927.597C3050.03 954.528 3025.77 976.744 2994.66 994.25C2964.17 1011.75 2929.01 1020.51 2889.19 1020.51C2844.39 1020.51 2803.32 1008.39 2765.99 984.151C2729.28 959.239 2700.04 924.901 2678.26 881.138C2657.1 836.701 2646.53 786.543 2646.53 730.662ZM3067.46 732.681C3067.46 694.306 3059.99 660.975 3045.06 632.698C3030.75 604.421 3011.77 582.874 2988.12 568.065C2964.48 553.251 2938.97 545.844 2911.59 545.844C2884.21 545.844 2858.7 553.251 2835.06 568.065C2811.41 582.201 2792.13 603.41 2777.19 631.691C2762.88 659.295 2755.73 692.282 2755.73 730.662C2755.73 769.038 2762.88 802.702 2777.19 831.652C2792.13 860.606 2811.41 882.822 2835.06 898.309C2859.32 913.122 2884.84 920.525 2911.59 920.525C2938.97 920.525 2964.48 913.122 2988.12 898.309C3011.77 883.495 3030.75 861.952 3045.06 833.671C3059.99 804.721 3067.46 771.056 3067.46 732.681ZM3743.87 719.552C3743.87 740.422 3742.63 759.278 3740.14 776.106H3347.21C3350.32 820.542 3365.56 856.23 3392.94 883.161C3420.32 910.092 3453.92 923.555 3493.74 923.555C3550.98 923.555 3591.43 897.636 3615.07 845.793H3729.87C3714.31 896.963 3686 939.042 3644.94 972.034C3604.49 1004.35 3554.09 1020.51 3493.74 1020.51C3444.59 1020.51 3400.41 1008.72 3361.21 985.163C3322.63 960.923 3292.14 927.259 3269.74 884.168C3247.96 840.405 3237.08 789.908 3237.08 732.681C3237.08 675.45 3247.65 625.291 3268.81 582.201C3290.58 538.438 3320.76 504.777 3359.34 481.211C3398.54 457.645 3443.34 445.862 3493.74 445.862C3542.27 445.862 3585.51 457.31 3623.47 480.199C3661.43 503.093 3690.98 535.412 3712.14 577.152C3733.29 618.223 3743.87 665.69 3743.87 719.552ZM3632.8 683.195C3632.18 640.778 3618.18 606.779 3590.81 581.194C3563.43 555.609 3529.52 542.814 3489.07 542.814C3452.36 542.814 3420.94 555.609 3394.81 581.194C3368.67 606.106 3353.12 640.105 3348.14 683.195H3632.8ZM3912.98 535.746C3928.53 507.469 3949.07 485.587 3974.58 470.101C4000.71 453.941 4031.5 445.862 4066.97 445.862V565.034H4039.93C3998.22 565.034 3966.49 576.479 3944.71 599.372C3923.56 622.261 3912.98 661.987 3912.98 718.54V1011.42H3806.58V454.953H3912.98V535.746ZM4165.72 1018.49C4146.42 1018.49 4130.25 1011.42 4117.17 997.28C4104.13 983.139 4097.59 965.634 4097.59 944.764C4097.59 923.894 4104.13 906.389 4117.17 892.248C4130.25 878.112 4146.42 871.039 4165.72 871.039C4184.37 871.039 4200.26 878.112 4213.3 892.248C4226.38 906.389 4232.92 923.894 4232.92 944.764C4232.92 965.634 4226.38 983.139 4213.3 997.28C4200.26 1011.42 4184.37 1018.49 4165.72 1018.49ZM4360.03 381.228C4340.73 381.228 4324.56 374.16 4311.52 360.019C4298.44 345.879 4291.9 328.378 4291.9 307.503C4291.9 286.633 4298.44 269.128 4311.52 254.987C4324.56 240.851 4340.73 233.779 4360.03 233.779C4378.69 233.779 4394.58 240.851 4407.66 254.987C4420.7 269.128 4427.24 286.633 4427.24 307.503C4427.24 328.378 4420.7 345.879 4407.66 360.019C4394.58 374.16 4378.69 381.228 4360.03 381.228ZM4412.31 454.953V1011.42H4305.91V454.953H4412.31ZM4733.06 1020.51C4684.55 1020.51 4640.66 1008.72 4601.46 985.163C4562.25 960.923 4531.48 927.259 4509.05 884.168C4486.66 840.405 4475.47 789.908 4475.47 732.681C4475.47 676.127 4486.98 625.964 4510.01 582.201C4533.01 538.438 4564.46 504.777 4604.26 481.211C4644.11 457.645 4688.56 445.862 4737.71 445.862C4786.91 445.862 4831.36 457.645 4871.2 481.211C4911.01 504.777 4942.42 538.438 4965.45 582.201C4988.48 625.964 5000 676.127 5000 732.681C5000 789.235 4988.16 839.398 4964.53 883.161C4940.9 926.924 4908.52 960.923 4867.47 985.163C4827.03 1008.72 4782.21 1020.51 4733.06 1020.51ZM4733.06 920.525C4760.42 920.525 4785.94 913.457 4809.61 899.316C4833.85 885.18 4853.47 863.971 4868.4 835.694C4883.32 807.413 4890.78 773.08 4890.78 732.681C4890.78 692.282 4883.64 658.283 4869.32 630.679C4855.03 602.402 4836.06 581.194 4812.38 567.053C4788.75 552.917 4763.23 545.844 4735.87 545.844C4708.5 545.844 4682.99 552.917 4659.31 567.053C4636.32 581.194 4617.95 602.402 4604.26 630.679C4590.58 658.283 4583.72 692.282 4583.72 732.681C4583.72 792.604 4597.72 839.059 4625.73 872.051C4654.34 904.37 4690.13 920.525 4733.06 920.525Z" fill="#0C0C0C"/>
<path d="M1119.66 0H79.9756C35.8063 0 0 37.3096 0 83.3333V1166.67C0 1212.69 35.8063 1250 79.9756 1250H1119.66C1163.83 1250 1199.63 1212.69 1199.63 1166.67V83.3333C1199.63 37.3096 1163.83 0 1119.66 0Z" fill="#0C0C0C"/>
<path fill-rule="evenodd" clip-rule="evenodd" d="M351.645 812.455C264.34 754.083 206.044 648.616 206.044 528.215C206.044 344.521 341.723 195.61 509.092 195.61C531.838 195.61 553.998 198.361 575.319 203.576L535.625 259.094C526.911 258.071 518.055 257.546 509.092 257.546C372.889 257.546 262.476 378.727 262.476 528.215C262.476 622.554 306.455 705.626 373.139 754.069L351.645 812.455ZM677.975 804.419C629.714 840.033 571.612 860.812 509.092 860.812C476.732 860.812 445.553 855.246 416.312 844.939L455.949 792.575C473.065 796.704 490.844 798.879 509.092 798.879C645.29 798.879 755.71 677.696 755.71 528.215C755.71 423.192 701.21 332.143 621.561 287.269L642.775 229.639C743.107 283.852 812.139 397.185 812.139 528.215C812.139 597.142 793.032 661.177 760.316 714.279L795.588 744.105L802.016 765.635C806.293 785.624 826.479 801.115 862.662 813.905C866.39 815.225 872.384 817.418 880.633 820.474C883.209 821.425 885.235 822.454 887.382 823.539L889.127 824.416C893.709 826.687 898.625 830.134 905.325 836.638C923.369 854.183 949.144 890.587 982.635 945.855C1000.82 974.523 996.172 1003.56 968.7 1032.99C942.535 1060.77 912.62 1062.07 878.94 1036.87C845.265 1011.68 818.23 989.667 797.827 970.833C795.556 967.607 793.032 964.563 790.593 961.624C786.938 957.213 783.475 953.041 781.36 948.86C774.764 935.787 765.339 909.273 756.745 884.226C748.383 859.857 740.483 856.601 720.706 850.145C717.5 849.103 711.999 846.954 704.191 843.693L677.975 804.419ZM610.158 217.907L367.627 557.859L486.611 553.513L387.469 822.832L667.671 449.406L524.945 449.38L610.158 217.907Z" fill="white" stroke="white" stroke-width="0.4"/>
</svg>
